<svg width="32" height="32" viewBox="0 0 32 32" fill="none" xmlns="http://www.w3.org/2000/svg">
<path opacity="0.8" fill-rule="evenodd" clip-rule="evenodd" d="M6.42498 5.99513C6.75404 4.30445 7.06027 3.25181 7.34317 2.8368C8.12662 1.68817 9.20984 2.3133 9.44013 2.40284C10.2491 2.71823 9.98608 0.642787 10.6802 0.220923C11.1428 -0.0601851 11.5232 0.283436 11.8217 1.25179C12.086 0.348369 12.4888 -0.0654281 13.03 0.00837784C13.842 0.120095 14.1261 4.57709 15.2419 3.60148C16.3578 2.62547 17.726 2.40243 18.3104 3.85274C18.4367 4.16652 18.4851 3.67972 19.3442 2.01767C20.2033 0.355225 21.06 -0.377188 22.8175 0.590759C23.6165 1.03037 24.2737 2.22215 24.7896 4.16571C24.7896 6.93969 26.0453 8.58197 28.5562 9.09135C32.323 9.85563 29.3992 16.4373 24.7896 18.3647C20.1798 20.2925 9.56669 21.3331 3.80738 16.4627C-0.0321543 13.2164 0.840377 9.72697 6.42473 5.99513H6.42498Z" fill="url(#paint0_linear_6154_34438)"/>
<path d="M15.8701 30.5085C19.7058 30.5085 22.8153 29.3388 22.8153 27.8959C22.8153 26.4529 19.7058 25.2832 15.8701 25.2832C12.0343 25.2832 8.9248 26.4529 8.9248 27.8959C8.9248 29.3388 12.0343 30.5085 15.8701 30.5085Z" fill="url(#paint1_linear_6154_34438)"/>
<path opacity="0.675" fill-rule="evenodd" clip-rule="evenodd" d="M27.5957 31.1555C22.3736 33.2842 4.549 30.8494 2.65182 29.7375C1.72841 29.1958 0.896083 28.1775 0.155076 26.682C0.072141 26.5148 0.020011 26.3128 0.00471015 26.0995C-0.0105907 25.8862 0.0115622 25.6702 0.0686088 25.4764C0.125655 25.2827 0.215267 25.1191 0.32709 25.0047C0.438912 24.8902 0.56838 24.8295 0.700533 24.8296H31.8481C32.4946 27.6278 31.0771 29.7363 27.5957 31.1555Z" fill="url(#paint2_linear_6154_34438)"/>
<path d="M21.1998 20.8939L18.8247 16.3801C18.7685 16.2724 18.6987 16.1856 18.62 16.1258C18.5414 16.0659 18.4557 16.0343 18.3688 16.0332H13.2617C13.0865 16.0332 12.92 16.1639 12.8058 16.3801L10.4307 20.8939V23.3719H21.1998V20.8939Z" fill="url(#paint3_linear_6154_34438)"/>
<path d="M20.5267 23.4632L18.4478 19.5317C18.3976 19.4389 18.3356 19.3647 18.2662 19.3142C18.1967 19.2638 18.1214 19.2382 18.0453 19.2393H13.5849C13.4318 19.2393 13.2821 19.3425 13.1824 19.5317L11.1035 23.4632V25.6225H20.5267V23.4632Z" fill="url(#paint4_linear_6154_34438)"/>
<path d="M21.1998 26.2115C21.1998 26.5556 21.1045 26.8649 20.9542 27.0722L20.9236 27.1125C20.8044 27.2594 20.6588 27.3387 20.5092 27.3384H11.1215C11.0367 27.3384 10.9555 27.3134 10.8806 27.2674L10.8434 27.2432C10.7205 27.1544 10.6162 27.0097 10.543 26.8265C10.4697 26.6433 10.4307 26.4296 10.4307 26.2111V20.9209H13.0435C13.3322 20.9209 13.5647 21.3069 13.5647 21.7751V21.7812C13.5647 22.2498 13.7999 22.6277 14.0885 22.6277H17.5419C17.6807 22.6275 17.8137 22.538 17.9119 22.3787C18.0101 22.2194 18.0654 22.0034 18.0658 21.7779C18.0658 21.3077 18.2986 20.9209 18.5869 20.9209H21.2001L21.1998 26.2115Z" fill="url(#paint5_linear_6154_34438)"/>
<defs>
<linearGradient id="paint0_linear_6154_34438" x1="16.5476" y1="14.9024" x2="16.5476" y2="-3.52231" gradientUnits="userSpaceOnUse">
<stop stop-color="#DEDEDE" stop-opacity="0"/>
<stop offset="1" stop-color="#A9A9A9" stop-opacity="0.3"/>
</linearGradient>
<linearGradient id="paint1_linear_6154_34438" x1="15.1464" y1="30.5085" x2="15.1464" y2="25.2832" gradientUnits="userSpaceOnUse">
<stop stop-color="white" stop-opacity="0"/>
<stop offset="1" stop-color="#96A1C5" stop-opacity="0.373"/>
</linearGradient>
<linearGradient id="paint2_linear_6154_34438" x1="16" y1="31.9998" x2="16" y2="23.4188" gradientUnits="userSpaceOnUse">
<stop stop-color="white" stop-opacity="0"/>
<stop offset="1" stop-color="#919191" stop-opacity="0.15"/>
</linearGradient>
<linearGradient id="paint3_linear_6154_34438" x1="15.8152" y1="16.0332" x2="15.8152" y2="19.3319" gradientUnits="userSpaceOnUse">
<stop stop-color="#5389F5"/>
<stop offset="1" stop-color="#416FDC"/>
</linearGradient>
<linearGradient id="paint4_linear_6154_34438" x1="17.0726" y1="25.6225" x2="17.0726" y2="18.8999" gradientUnits="userSpaceOnUse">
<stop stop-color="#DCE9FF"/>
<stop offset="1" stop-color="#B6CFFF"/>
</linearGradient>
<linearGradient id="paint5_linear_6154_34438" x1="15.8154" y1="20.9209" x2="15.8154" y2="27.3384" gradientUnits="userSpaceOnUse">
<stop stop-color="#7CA5F7"/>
<stop offset="1" stop-color="#C4D6FC"/>
</linearGradient>
</defs>
</svg>
