<svg width="98" height="60" viewBox="0 0 98 60" fill="none" xmlns="http://www.w3.org/2000/svg">
<path opacity="0.8" fill-rule="evenodd" clip-rule="evenodd" d="M19.5179 11.1486C20.5175 8.00458 21.4478 6.04708 22.3072 5.27533C24.6871 3.13933 27.9776 4.30183 28.6772 4.46833C31.1347 5.05483 30.3356 1.19533 32.4441 0.410829C33.8493 -0.111921 35.0049 0.527079 35.9118 2.32783C36.7147 0.647829 37.9382 -0.121671 39.5823 0.0155795C42.0489 0.223329 42.912 8.51158 46.3013 6.69733C49.6914 4.88233 53.8473 4.46758 55.6226 7.16458C56.0064 7.74808 56.1534 6.84283 58.7632 3.75208C61.373 0.660579 63.9753 -0.701421 69.314 1.09858C71.7414 1.91608 73.7376 4.13233 75.3048 7.74658C75.3048 12.9051 79.1193 15.9591 86.7467 16.9063C98.1893 18.3276 89.3075 30.5668 75.3048 34.1511C61.3014 37.7361 29.0616 39.6711 11.5664 30.6141C-0.0971441 24.5773 2.55338 18.0883 19.5172 11.1486H19.5179Z" fill="url(#paint0_linear_739_18191)"/>
<path d="M48.2092 56.7336C59.8613 56.7336 69.3071 54.5584 69.3071 51.8751C69.3071 49.1918 59.8613 47.0166 48.2092 47.0166C36.5572 47.0166 27.1113 49.1918 27.1113 51.8751C27.1113 54.5584 36.5572 56.7336 48.2092 56.7336Z" fill="url(#paint1_linear_739_18191)"/>
<path opacity="0.675" fill-rule="evenodd" clip-rule="evenodd" d="M83.8284 57.9373C67.9652 61.8958 13.8187 57.3681 8.05553 55.3003C5.25047 54.2931 2.72207 52.3993 0.471081 49.6183C0.219145 49.3074 0.0607881 48.9318 0.0143082 48.5351C-0.0321717 48.1384 0.0351229 47.7367 0.208416 47.3765C0.381708 47.0162 0.653926 46.7121 0.993612 46.4992C1.3333 46.2863 1.72659 46.1735 2.12803 46.1736H96.7463C98.7101 51.3771 94.4041 55.2981 83.8284 57.9373Z" fill="url(#paint2_linear_739_18191)"/>
<path d="M64.399 38.8544L57.1839 30.4604C57.0133 30.2602 56.8012 30.0989 56.5622 29.9876C56.3233 29.8763 56.063 29.8175 55.7991 29.8154H40.2849C39.7527 29.8154 39.2469 30.0584 38.9001 30.4604L31.6851 38.8544V43.4624H64.399V38.8544Z" fill="url(#paint3_linear_739_18191)"/>
<path d="M62.3545 43.6319L56.0396 36.3209C55.8869 36.1483 55.6987 36.0104 55.4877 35.9166C55.2767 35.8227 55.0479 35.7752 54.8168 35.7772H41.2672C40.8021 35.7772 40.3475 35.9692 40.0445 36.3209L33.7295 43.6319V47.6474H62.3545V43.6319Z" fill="url(#paint4_linear_739_18191)"/>
<path d="M64.399 48.7433C64.399 49.383 64.1095 49.9583 63.6527 50.3438L63.5599 50.4188C63.1977 50.6919 62.7555 50.8394 62.301 50.8388H33.7838C33.526 50.8388 33.2794 50.7923 33.0518 50.7068L32.9387 50.6618C32.5656 50.4967 32.2487 50.2275 32.0262 49.8869C31.8037 49.5462 31.6852 49.1488 31.6851 48.7425V38.9048H39.6223C40.499 38.9048 41.2054 39.6225 41.2054 40.4933V40.5045C41.2054 41.376 41.92 42.0788 42.7967 42.0788H53.2873C53.7087 42.0784 54.1128 41.9119 54.411 41.6157C54.7093 41.3195 54.8774 40.9178 54.8786 40.4985C54.8786 39.624 55.5857 38.9048 56.4617 38.9048H64.3997L64.399 48.7433Z" fill="url(#paint5_linear_739_18191)"/>
<defs>
<linearGradient id="paint0_linear_739_18191" x1="50.2679" y1="27.7125" x2="50.2679" y2="-6.55011" gradientUnits="userSpaceOnUse">
<stop stop-color="#DEDEDE" stop-opacity="0"/>
<stop offset="1" stop-color="#A9A9A9" stop-opacity="0.3"/>
</linearGradient>
<linearGradient id="paint1_linear_739_18191" x1="46.0108" y1="56.7336" x2="46.0108" y2="47.0166" gradientUnits="userSpaceOnUse">
<stop stop-color="white" stop-opacity="0"/>
<stop offset="1" stop-color="#96A1C5" stop-opacity="0.373"/>
</linearGradient>
<linearGradient id="paint2_linear_739_18191" x1="48.6038" y1="59.5074" x2="48.6038" y2="43.5502" gradientUnits="userSpaceOnUse">
<stop stop-color="white" stop-opacity="0"/>
<stop offset="1" stop-color="#919191" stop-opacity="0.15"/>
</linearGradient>
<linearGradient id="paint3_linear_739_18191" x1="48.042" y1="29.8154" x2="48.042" y2="35.9498" gradientUnits="userSpaceOnUse">
<stop stop-color="#5389F5"/>
<stop offset="1" stop-color="#416FDC"/>
</linearGradient>
<linearGradient id="paint4_linear_739_18191" x1="51.862" y1="47.6474" x2="51.862" y2="35.1461" gradientUnits="userSpaceOnUse">
<stop stop-color="#DCE9FF"/>
<stop offset="1" stop-color="#B6CFFF"/>
</linearGradient>
<linearGradient id="paint5_linear_739_18191" x1="48.0424" y1="38.9048" x2="48.0424" y2="50.8388" gradientUnits="userSpaceOnUse">
<stop stop-color="#7CA5F7"/>
<stop offset="1" stop-color="#C4D6FC"/>
</linearGradient>
</defs>
</svg>
