<svg width="64" height="64" viewBox="0 0 64 64" fill="none" xmlns="http://www.w3.org/2000/svg">
<rect width="64" height="64" fill="white"/>
<path d="M43.7326 38.1524C43.7326 41.2434 41.2388 43.7385 38.1494 43.7385C35.06 43.7385 32.5662 41.2434 32.5662 38.1524C32.5662 35.0615 30.0724 32.5664 26.9831 32.5664C23.8937 32.5664 21.3999 30.0713 21.3999 26.9803C21.3999 23.8893 23.8937 21.3942 26.9831 21.3942C30.0724 21.3942 32.5662 23.8893 32.5662 26.9803C32.5662 30.0713 35.06 32.5664 38.1494 32.5664C41.2388 32.5664 43.7326 35.0615 43.7326 38.1524Z" fill="#10239E"/>
<ellipse cx="38.5069" cy="26.7284" rx="4.92533" ry="4.92789" fill="#10239E"/>
<ellipse cx="26.7315" cy="38.5099" rx="4.92533" ry="4.92789" fill="#40A9FF"/>
</svg>
