<svg width="309" height="76" viewBox="0 0 309 76" fill="none" xmlns="http://www.w3.org/2000/svg">
<path d="M219.592 36.0287C219.592 34.9241 220.487 34.0287 221.592 34.0287H226.125C227.229 34.0287 228.125 34.9241 228.125 36.0287V39.4928C228.125 39.535 228.159 39.5693 228.201 39.5693V39.5693C228.232 39.5693 228.259 39.5513 228.271 39.5236C228.651 38.6731 229.213 37.8236 229.958 37.0298C230.653 36.2218 231.475 35.587 232.423 35.0098C233.308 34.4327 234.319 34.0287 235.394 33.6824C236.405 33.3938 237.543 33.2784 238.681 33.2207C238.807 33.2207 238.937 33.2264 239.07 33.2372C240 33.3123 240.64 34.1711 240.64 35.1042V39.6006C240.64 40.4099 239.928 41.0361 239.123 40.9544V40.9544C238.491 40.8967 237.922 40.839 237.416 40.839C235.773 40.839 234.382 41.1275 233.245 41.5893C232.107 42.1087 231.159 42.8013 230.464 43.667C229.768 44.5327 229.263 45.5138 229.01 46.6681C228.694 47.8224 228.567 49.0921 228.567 50.4195V62.0016C228.567 63.1062 227.672 64.0016 226.567 64.0016H221.592C220.487 64.0016 219.592 63.1062 219.592 62.0016V36.0287Z" fill="#10239E"/>
<path d="M207.505 45.7447C207.063 43.667 206.304 42.1087 205.229 41.0121C204.155 39.9733 202.512 39.4538 200.362 39.3961C198.909 39.3961 197.708 39.627 196.76 40.0887C195.811 40.5504 195.053 41.0698 194.484 41.7047C193.915 42.3973 193.536 43.0898 193.283 43.7824C193.03 44.5327 192.904 45.1675 192.904 45.7447H207.505ZM192.904 50.939C193.03 53.5938 193.726 55.5561 195.116 56.7104C196.444 57.9224 198.403 58.4995 200.931 58.4995C202.701 58.4995 204.281 58.0955 205.609 57.2875C206.309 56.84 206.873 56.3571 207.291 55.8584C207.84 55.2032 208.585 54.6327 209.44 54.6327H214.498C215.188 54.6327 215.67 55.3157 215.396 55.949C214.139 58.8533 212.359 60.9988 210.097 62.3087C207.442 63.8669 204.281 64.6172 200.615 64.6172C198.024 64.6172 195.685 64.2709 193.662 63.5207C191.576 62.7704 189.807 61.6738 188.416 60.2887C186.962 58.9035 185.824 57.2875 185.066 55.3252C184.307 53.4207 183.928 51.2852 183.928 48.9767C183.928 46.7835 184.307 44.7058 185.129 42.7435C185.888 40.839 187.025 39.1653 188.542 37.7801C189.996 36.395 191.766 35.2407 193.789 34.4327C195.811 33.6247 198.087 33.2207 200.615 33.2207C203.396 33.2207 205.798 33.7401 207.884 34.7213C209.907 35.7024 211.614 37.0298 212.941 38.6458C214.268 40.3195 215.216 42.2241 215.849 44.3018C216.26 45.8458 216.473 47.42 216.512 49.0462C216.537 50.108 215.649 50.939 214.587 50.939H192.904Z" fill="#10239E"/>
<path d="M173.386 62.6978C173.095 63.4819 172.347 64.0022 171.511 64.0022H164.306C163.47 64.0022 162.722 63.4822 162.431 62.6984L152.285 35.3774C152.043 34.7242 152.526 34.0293 153.223 34.0293H159.768C160.625 34.0293 161.388 34.5761 161.662 35.3886L168.072 54.3425C168.084 54.3783 168.118 54.4024 168.156 54.4024V54.4024C168.193 54.4024 168.227 54.3783 168.239 54.3425L174.649 35.3886C174.924 34.5761 175.686 34.0293 176.544 34.0293H182.583C183.28 34.0293 183.763 34.7239 183.521 35.3771L173.386 62.6978Z" fill="#10239E"/>
<path d="M142.795 45.7447C142.353 43.667 141.594 42.1087 140.52 41.0121C139.445 39.9733 137.802 39.4538 135.653 39.3961C134.199 39.3961 132.998 39.627 132.05 40.0887C131.102 40.5504 130.343 41.0698 129.774 41.7047C129.205 42.3973 128.826 43.0898 128.573 43.7824C128.32 44.5327 128.194 45.1675 128.194 45.7447H142.795ZM128.194 50.939C128.32 53.5938 129.016 55.5561 130.406 56.7104C131.734 57.9224 133.693 58.4995 136.221 58.4995C137.991 58.4995 139.572 58.0955 140.899 57.2875C141.599 56.84 142.163 56.3571 142.581 55.8584C143.131 55.2032 143.875 54.6327 144.73 54.6327H149.788C150.478 54.6327 150.96 55.3157 150.686 55.949C149.43 58.8533 147.649 60.9988 145.387 62.3087C142.732 63.8669 139.572 64.6172 135.905 64.6172C133.314 64.6172 130.975 64.2709 128.952 63.5207C126.867 62.7704 125.097 61.6738 123.706 60.2887C122.252 58.9035 121.115 57.2875 120.356 55.3252C119.598 53.4207 119.218 51.2852 119.218 48.9767C119.218 46.7835 119.598 44.7058 120.419 42.7435C121.178 40.839 122.316 39.1653 123.833 37.7801C125.286 36.395 127.056 35.2407 129.079 34.4327C131.102 33.6247 133.377 33.2207 135.905 33.2207C138.687 33.2207 141.089 33.7401 143.174 34.7213C145.197 35.7024 146.904 37.0298 148.231 38.6458C149.558 40.3195 150.507 42.2241 151.139 44.3018C151.55 45.8458 151.763 47.42 151.802 49.0462C151.827 50.108 150.939 50.939 149.877 50.939H128.194Z" fill="#10239E"/>
<path d="M107.165 23.2935C107.165 22.1889 108.06 21.2935 109.165 21.2935H114.014C115.119 21.2935 116.014 22.1889 116.014 23.2935V62.0019C116.014 63.1065 115.119 64.002 114.014 64.002H109.165C108.06 64.002 107.165 63.1065 107.165 62.002V23.2935Z" fill="#10239E"/>
<path d="M95.4463 35.987C94.4819 35.987 93.6836 35.2827 93.3017 34.3971C93.121 33.9778 92.9008 33.5757 92.6413 33.1855C92.0077 32.3279 91.3106 31.5847 90.4235 30.8986C89.5364 30.2697 88.5225 29.7551 87.3819 29.4121C86.2413 29.069 85.1007 28.8975 83.8967 28.8403C81.6155 28.8403 79.7145 29.2406 78.1937 30.041C76.6095 30.8414 75.3422 31.8705 74.3917 33.1855C73.3778 34.5005 72.6808 35.987 72.2372 37.645C71.7936 39.3602 71.6035 41.0754 71.6035 42.8478C71.6035 44.563 71.7936 46.2782 72.2372 47.8791C72.6808 49.4799 73.3778 50.9664 74.3917 52.2242C75.3422 53.5392 76.6095 54.5683 78.1937 55.3688C79.7145 56.1692 81.6155 56.5122 83.8967 56.5122C86.9383 56.5122 89.2829 55.7118 90.9938 53.9966C92.3349 52.6969 93.2867 51.046 93.8186 49.0712C94.0783 48.1071 94.9056 47.3645 95.9042 47.3645H101.587C102.769 47.3645 103.703 48.3879 103.462 49.5452C103.107 51.2525 102.548 52.8248 101.83 54.2825C100.752 56.3407 99.3582 58.1131 97.6473 59.5424C95.8731 61.0289 93.8453 62.1152 91.5641 62.8585C89.2195 63.6589 86.6848 64.0019 83.8967 64.0019C80.4115 64.0019 77.3065 63.4874 74.5184 62.4011C71.7302 61.3148 69.449 59.8283 67.548 57.8844C65.647 55.9977 64.1896 53.7679 63.1757 51.1951C62.1618 48.6223 61.6549 45.8208 61.6549 42.8478C61.6549 39.8176 62.1618 37.0161 63.1757 34.3862C64.1896 31.7562 65.647 29.4692 67.548 27.5253C69.449 25.6386 71.7302 24.0949 74.5184 22.9515C77.3065 21.8652 80.4115 21.3506 83.8967 21.2935C86.368 21.2935 88.7126 21.6365 90.9304 22.2654C93.1483 22.9515 95.1127 23.8663 96.8869 25.1241C98.6612 26.3819 100.119 27.8684 101.259 29.6979C102.023 30.9236 102.588 32.2775 102.973 33.7426C103.281 34.9138 102.336 35.987 101.125 35.987H95.4463Z" fill="#10239E"/>
<path d="M297.005 25.1517H302.773C303.877 25.1517 304.773 26.0471 304.773 27.1517V31.4309C304.773 32.5355 303.877 33.4309 302.773 33.4309H297.005V49.2513C297.005 54.6357 297.342 54.6197 298.016 55.2505C298.69 55.8813 300.039 56.1967 302.062 56.1967C302.736 56.2756 303.326 56.1967 304 56.1179V56.1179C304.762 56.1179 305.826 56.5515 305.826 57.3132V62.5979C305.826 63.4016 305.352 64.1448 304.596 64.417C303.883 64.6734 303.138 64.8702 302.399 64.8702C301.134 64.949 299.955 64.949 298.775 64.949C298.696 64.949 297.361 64.949 296.799 64.8702C295.431 64.6781 293.395 63.9634 292.131 63.2538C291.504 62.9019 289.983 61.451 289.513 60.5826C289.415 60.4009 289.332 60.2106 289.238 60.0268C288.703 58.9834 288.408 57.2059 288.408 55.3294V33.4309H282.964C281.86 33.4309 280.964 32.5355 280.964 31.4309V27.1517C280.964 26.0471 281.86 25.1517 282.964 25.1517H288.408V13.353C288.408 12.2485 289.304 11.353 290.408 11.353H295.005C296.109 11.353 297.005 12.2485 297.005 13.353V25.1517Z" fill="#10239E"/>
<path fill-rule="evenodd" clip-rule="evenodd" d="M243.882 31.4309C243.882 32.5355 244.777 33.4309 245.882 33.4309H249.781V62.0028C249.781 63.1074 250.677 64.0028 251.781 64.0028H257.221C258.325 64.0028 259.221 63.1074 259.221 62.0028V33.4309H264.216C265.32 33.4309 266.216 32.5355 266.216 31.4309L266.216 27.1517C266.216 26.0471 265.32 25.1517 264.216 25.1517H259.221L259.221 24.4421C259.221 22.7862 259.558 21.2138 260.232 20.5041C260.906 19.7945 262.086 19.4002 263.772 19.4002C264.897 19.4002 265.976 19.4436 267.043 19.5304C267.637 19.5787 268.154 19.1163 268.154 18.5207V11.353L264.952 11.353L261.791 11.353C257.788 11.353 254.627 13.2631 252.731 15.0984C250.287 17.4639 249.781 20.1842 249.781 23.7324L249.781 25.1517H245.882C244.777 25.1517 243.882 26.0472 243.882 27.1517L243.882 31.4309ZM278.436 38.9792C278.436 37.8746 277.541 36.9792 276.436 36.9792H271.25C270.145 36.9792 269.25 37.8746 269.25 38.9792V62.0028C269.25 63.1074 270.145 64.0028 271.25 64.0028H276.436C277.541 64.0028 278.436 63.1074 278.436 62.0028V38.9792Z" fill="#10239E"/>
<path d="M278.436 29.3702C278.436 31.7721 276.489 33.7192 274.087 33.7192H273.936C271.534 33.7192 269.587 31.7721 269.587 29.3702V29.3702C269.587 26.9684 271.534 25.0212 273.936 25.0212H274.087C276.489 25.0212 278.436 26.9684 278.436 29.3702V29.3702Z" fill="#40A9FF"/>
<path d="M50.8343 52.6865C50.8343 59.2717 45.4565 64.5874 38.7944 64.5874C32.1324 64.5874 26.7546 59.2717 26.7546 52.6865C26.7546 46.1014 21.3768 40.7857 14.7148 40.7857C8.05272 40.7857 2.67493 35.4699 2.67493 28.8848C2.67493 22.2996 8.05272 16.9839 14.7148 16.9839C21.3768 16.9839 26.7546 22.2996 26.7546 28.8848C26.7546 35.4699 32.1324 40.7857 38.7944 40.7857C45.4565 40.7857 50.8343 46.1014 50.8343 52.6865Z" fill="#10239E"/>
<ellipse cx="39.5648" cy="28.3483" rx="10.6212" ry="10.4987" fill="#10239E"/>
<ellipse cx="14.1718" cy="53.4479" rx="10.6212" ry="10.4987" fill="#40A9FF"/>
</svg>
